<svg width="30" height="37" viewBox="0 0 30 37" fill="none" xmlns="http://www.w3.org/2000/svg">
<path fill-rule="evenodd" clip-rule="evenodd" d="M15 0C6.71573 0 0 6.72945 0 15.0306C0 24.3792 5.90393 31.868 12.1287 36.113C13.863 37.2957 16.137 37.2957 17.8713 36.113C24.0961 31.868 30 24.3792 30 15.0306C30 6.72945 23.2843 0 15 0ZM7 16.5C11 11 12.5 11.5 15 8.5C17.5 13 22 13 22.5 19C22 26 23 25.5 16.5 27C17.5 13 12 21 12.5 27C6.91613 23.1921 7 24.2013 7 16.5Z" fill="#69A3F9"/>
<path fill-rule="evenodd" clip-rule="evenodd" d="M7 17.431L6.68663 17.727C6.28511 18.1062 5.6522 18.0881 5.27299 17.6866C4.89378 17.2851 4.91186 16.6522 5.31338 16.273L12.9401 9.06994C14.0963 7.97799 15.9037 7.97799 17.0599 9.06994L24.6866 16.273C25.0881 16.6522 25.1062 17.2851 24.727 17.6866C24.3478 18.0881 23.7149 18.1062 23.3134 17.727L23 17.431V24C23 25.6569 21.6569 27 20 27H10C8.34315 27 7 25.6569 7 24V17.431ZM14.3134 10.524C14.6988 10.16 15.3012 10.16 15.6866 10.524L21 15.5422V24C21 24.5523 20.5523 25 20 25H18V21C18 19.3431 16.6569 18 15 18C13.3431 18 12 19.3431 12 21V25H10C9.44772 25 9 24.5523 9 24V15.5422L14.3134 10.524ZM14 25H16V21C16 20.4477 15.5523 20 15 20C14.4477 20 14 20.4477 14 21V25Z" fill="#69A3F9"/>
<path d="M18 25V22.4286V21.2643C18 20.5576 17.6701 19.8915 17.108 19.4632V19.4632C16.7136 19.1627 16.2315 19 15.7357 19H15H14.2643C13.7685 19 13.2864 19.1627 12.892 19.4632V19.4632C12.3299 19.8915 12 20.5576 12 21.2643V25" stroke="#E0E5FC" stroke-width="3"/>
</svg>
