<svg width="30" height="37" viewBox="0 0 30 37" fill="none" xmlns="http://www.w3.org/2000/svg">
<path fill-rule="evenodd" clip-rule="evenodd" d="M15 0C6.71573 0 0 6.72945 0 15.0306C0 24.3792 5.90393 31.868 12.1287 36.113C13.863 37.2957 16.137 37.2957 17.8713 36.113C24.0961 31.868 30 24.3792 30 15.0306C30 6.72945 23.2843 0 15 0Z" fill="#69A3F9"/>
<path fill-rule="evenodd" clip-rule="evenodd" d="M15 8.33337C12.4687 8.33337 10.4166 10.3854 10.4166 12.9167C10.4166 15.448 12.4687 17.5 15 17.5C17.5313 17.5 19.5833 15.448 19.5833 12.9167C19.5833 10.3854 17.5313 8.33337 15 8.33337ZM12.25 12.9167C12.25 11.3979 13.4812 10.1667 15 10.1667C16.5187 10.1667 17.75 11.3979 17.75 12.9167C17.75 14.4355 16.5187 15.6667 15 15.6667C13.4812 15.6667 12.25 14.4355 12.25 12.9167Z" fill="white"/>
<path d="M9.49996 25.75C9.49996 22.7125 11.9624 20.25 15 20.25C18.0375 20.25 20.5 22.7125 20.5 25.75C20.5 26.2563 20.9104 26.6667 21.4166 26.6667C21.9229 26.6667 22.3333 26.2563 22.3333 25.75C22.3333 21.7 19.05 18.4167 15 18.4167C10.9499 18.4167 7.66663 21.7 7.66663 25.75C7.66663 26.2563 8.07703 26.6667 8.58329 26.6667C9.08955 26.6667 9.49996 26.2563 9.49996 25.75Z" fill="white"/>
<path d="M21 26C17 27.5 18.3137 27.5 15 27.5C11.6863 27.5 9 27 9 26.5C9 22.9101 11.6863 19.5 15 19.5C18.3137 19.5 21 22.4101 21 26Z" fill="white"/>
<path d="M8.49994 26C7.99999 26.5 12.2593 27 14.9999 27C17.7406 27 22 26.5 21.5 26" stroke="white"/>
<ellipse cx="15" cy="13" rx="3" ry="3.5" fill="white"/>
</svg>
