<svg width="39" height="41" viewBox="0 0 39 41" fill="none" xmlns="http://www.w3.org/2000/svg">
<path d="M23.6908 18.3084C23.6908 18.3837 23.6908 18.4535 23.6908 18.5233C23.6386 19.8663 23.094 21.1428 22.1614 22.108C21.2288 23.0732 19.9738 23.6593 18.637 23.7538C18.5118 23.7538 18.3838 23.7678 18.253 23.7678C18.1222 23.7678 18.0248 23.7678 17.9135 23.7678C16.5506 23.6833 15.2692 23.0879 14.3237 22.0998C13.3782 21.1117 12.8377 19.8032 12.8096 18.434C12.8096 18.3921 12.8096 18.3502 12.8096 18.3084C12.8417 16.8822 13.4292 15.5253 14.4463 14.528C15.4633 13.5308 16.8292 12.9724 18.2516 12.9724C19.6739 12.9724 21.0398 13.5308 22.0569 14.528C23.074 15.5253 23.6614 16.8822 23.6936 18.3084H23.6908Z" fill="url(#paint0_linear_741_647)"/>
<path d="M36.4953 18.3084C36.4986 21.2213 35.8057 24.0926 34.4749 26.6817C33.1666 29.2193 31.2878 31.4171 28.987 33.1012C28.2096 32.4034 27.4341 31.7047 26.6604 31.0051C29.3385 29.1864 31.3634 26.5534 32.437 23.4936C33.5107 20.4339 33.5762 17.1092 32.624 14.0093C31.6719 10.9094 29.7523 8.19807 27.1481 6.27467C24.5438 4.35126 21.3926 3.31744 18.1584 3.32547C14.9243 3.3335 11.7781 4.38294 9.18342 6.31926C6.58871 8.25557 4.68256 10.9764 3.7457 14.081C2.80885 17.1856 2.89082 20.5099 3.97953 23.5643C5.06824 26.6186 7.10615 29.2416 9.79312 31.0469L7.45268 33.0565C4.93814 31.2061 2.93846 28.7401 1.64453 25.894C0.350596 23.0479 -0.1944 19.9167 0.0615625 16.7993C0.317525 13.6818 1.3659 10.6822 3.10662 8.08674C4.84734 5.49128 7.2223 3.38661 10.0048 1.97363C12.7873 0.560646 15.8844 -0.113483 19.0006 0.0155899C22.1168 0.144663 25.148 1.07263 27.8048 2.71091C30.4617 4.3492 32.6555 6.64311 34.1769 9.37369C35.6983 12.1043 36.4965 15.1804 36.4953 18.3084Z" fill="url(#paint1_linear_741_647)"/>
<path d="M33.2951 18.4702C33.2966 20.9454 32.6924 23.383 31.5357 25.5695C30.379 27.7559 28.705 29.6242 26.6606 31.0107C25.7144 30.1659 24.7775 29.3183 23.8499 28.468C26.0681 27.2041 27.8055 25.2378 28.7899 22.8774C29.7744 20.5169 29.9503 17.8956 29.29 15.4241C28.6298 12.9527 27.1707 10.7707 25.1413 9.22014C23.112 7.66957 20.6271 6.838 18.076 6.85573C15.525 6.87345 13.0518 7.73947 11.0441 9.31809C9.03639 10.8967 7.60757 13.0987 6.9815 15.5791C6.35544 18.0595 6.56751 20.6782 7.58449 23.0247C8.60147 25.3713 10.3659 27.3132 12.6013 28.5461C11.6737 29.3835 10.7414 30.2208 9.80446 31.0581C7.63728 29.6027 5.88293 27.6091 4.71231 25.2715C3.5417 22.9339 2.99474 20.3321 3.12472 17.7195C3.25471 15.1069 4.0572 12.5726 5.45402 10.3636C6.85084 8.15448 8.79437 6.34593 11.0952 5.11409C13.3961 3.88226 15.9759 3.26915 18.5833 3.33448C21.1906 3.39982 23.7367 4.14138 25.9734 5.48692C28.21 6.83247 30.0611 8.73611 31.3462 11.0124C32.6312 13.2887 33.3065 15.86 33.3063 18.4758L33.2951 18.4702Z" fill="url(#paint2_linear_741_647)"/>
<path d="M28.9869 33.1068C25.8567 35.3908 22.0835 36.6174 18.2125 36.6093C14.3416 36.6013 10.5734 35.3591 7.45264 33.0621L9.79308 31.0525C12.2895 32.7299 15.2283 33.6219 18.2331 33.6144C21.238 33.607 24.1722 32.7004 26.6604 31.0107C27.434 31.7122 28.2096 32.4109 28.9869 33.1068Z" fill="url(#paint3_linear_741_647)"/>
<path d="M34.4752 26.69C35.7517 31.4591 37.03 36.2291 38.3101 41L28.9873 33.1068C31.2886 31.4242 33.1675 29.2273 34.4752 26.69Z" fill="#F1F2F0"/>
<path d="M34.4746 26.69V26.6566" stroke="black" stroke-width="0.5" stroke-miterlimit="10"/>
<path d="M26.6608 31.0107C24.1728 32.7007 21.2384 33.6075 18.2335 33.615C15.2285 33.6224 12.2898 32.7302 9.79346 31.0525C10.7211 30.2208 11.6534 29.3834 12.5903 28.5405C14.0685 29.3569 15.7092 29.8336 17.3936 29.9361C17.6413 29.9528 17.8918 29.9612 18.1422 29.9612C20.1421 29.9711 22.1098 29.4563 23.85 28.468C24.7777 29.3165 25.7146 30.164 26.6608 31.0107Z" fill="url(#paint4_linear_741_647)"/>
<defs>
<linearGradient id="paint0_linear_741_647" x1="12.9515" y1="18.3084" x2="24.4561" y2="18.3084" gradientUnits="userSpaceOnUse">
<stop stop-color="#F1F2F0"/>
<stop offset="1" stop-color="#CECECE"/>
</linearGradient>
<linearGradient id="paint1_linear_741_647" x1="0.0027868" y1="16.5583" x2="36.4953" y2="16.5583" gradientUnits="userSpaceOnUse">
<stop stop-color="white"/>
<stop offset="1" stop-color="#CFCFCF"/>
</linearGradient>
<linearGradient id="paint2_linear_741_647" x1="3.09761" y1="17.1891" x2="33.2951" y2="17.1891" gradientUnits="userSpaceOnUse">
<stop offset="0.01" stop-color="#D8D8D8"/>
<stop offset="0.25" stop-color="#E6E6E5"/>
<stop offset="0.55" stop-color="#EEEFED"/>
<stop offset="1" stop-color="#F1F2F0"/>
</linearGradient>
<linearGradient id="paint3_linear_741_647" x1="7.45264" y1="33.8102" x2="28.9869" y2="33.8102" gradientUnits="userSpaceOnUse">
<stop stop-color="white"/>
<stop offset="1" stop-color="#B3B3B3"/>
</linearGradient>
<linearGradient id="paint4_linear_741_647" x1="9.79346" y1="31.0414" x2="26.6608" y2="31.0414" gradientUnits="userSpaceOnUse">
<stop offset="0.01" stop-color="#B3B3B3"/>
<stop offset="0.19" stop-color="#C6C6C6"/>
<stop offset="0.44" stop-color="#D8D8D8"/>
<stop offset="0.7" stop-color="#E3E3E3"/>
<stop offset="1" stop-color="#E6E6E6"/>
</linearGradient>
</defs>
</svg>
