<svg width="22" height="22" viewBox="0 0 22 22" fill="none" xmlns="http://www.w3.org/2000/svg">
<g clip-path="url(#clip0_510_2261)">
<path d="M11 22C17.0751 22 22 17.0751 22 11C22 4.92487 17.0751 0 11 0C4.92487 0 0 4.92487 0 11C0 17.0751 4.92487 22 11 22Z" fill="url(#paint0_linear_510_2261)"/>
<path fill-rule="evenodd" clip-rule="evenodd" d="M4.97943 10.883C8.18615 9.48586 10.3245 8.56479 11.3944 8.11978C14.4492 6.84918 15.084 6.62846 15.4977 6.62117C15.5887 6.61957 15.7922 6.64212 15.9239 6.74906C16.0352 6.83936 16.0658 6.96134 16.0805 7.04695C16.0952 7.13257 16.1134 7.3276 16.0989 7.47999C15.9334 9.21935 15.2171 13.4403 14.8526 15.3884C14.6984 16.2127 14.3948 16.4891 14.1009 16.5162C13.4621 16.575 12.977 16.094 12.3583 15.6885C11.3902 15.0538 10.8433 14.6588 9.90351 14.0395C8.81746 13.3238 9.5215 12.9304 10.1404 12.2876C10.3024 12.1194 13.1169 9.55933 13.1714 9.3271C13.1782 9.29805 13.1845 9.18979 13.1202 9.13262C13.0559 9.07545 12.961 9.095 12.8925 9.11055C12.7954 9.13259 11.2488 10.1548 8.25261 12.1773C7.81361 12.4788 7.41597 12.6257 7.05971 12.618C6.66695 12.6095 5.91144 12.3959 5.3498 12.2133C4.66093 11.9894 4.11342 11.871 4.1611 11.4907C4.18593 11.2926 4.45871 11.09 4.97943 10.883Z" fill="white"/>
</g>
<defs>
<linearGradient id="paint0_linear_510_2261" x1="11" y1="0" x2="11" y2="21.8368" gradientUnits="userSpaceOnUse">
<stop stop-color="#2AABEE"/>
<stop offset="1" stop-color="#229ED9"/>
</linearGradient>
<clipPath id="clip0_510_2261">
<rect width="22" height="22" fill="white"/>
</clipPath>
</defs>
</svg>
