<svg width="30" height="37" viewBox="0 0 30 37" fill="none" xmlns="http://www.w3.org/2000/svg">
<path fill-rule="evenodd" clip-rule="evenodd" d="M15 0C6.71573 0 0 6.72945 0 15.0306C0 24.3792 5.90393 31.868 12.1287 36.113C13.863 37.2957 16.137 37.2957 17.8713 36.113C24.0961 31.868 30 24.3792 30 15.0306C30 6.72945 23.2843 0 15 0ZM7 16.5C11 11 12.5 11.5 15 8.5C17.5 13 22 13 22.5 19C22 26 23 25.5 16.5 27C17.5 13 12 21 12.5 27C6.91613 23.1921 7 24.2013 7 16.5Z" fill="#69A3F9"/>
<rect x="6" y="8" width="20" height="19" fill="#69A3F9"/>
<rect x="7.40039" y="8.35132" width="18" height="17.4595" fill="#FAFAFE"/>
<path d="M15.05 16.6216C12.9158 15.2432 9.90812 8.81081 15.5 8.81081C21.0919 8.81081 18.0842 16.6216 15.05 16.6216ZM15.05 16.6216C9.65 22.1351 8.75 23.0541 13.7 23.973C15.05 24.4324 17.3349 24.7214 17.75 24.4324C20.45 24.4324 24.05 22.5946 15.05 16.6216ZM15.5 1C8.04416 1 2 7.18382 2 14.8119C2 23.4025 7.31353 30.2842 12.9158 34.1849C14.4767 35.2717 16.5233 35.2717 18.0842 34.1849C23.6865 30.2842 29 23.4025 29 14.8119C29 7.18382 22.9558 1 15.5 1Z" fill="#69A3F9"/>
<path d="M15.05 16.6216C12.9158 15.2432 9.90812 8.81081 15.5 8.81081C21.0919 8.81081 18.0842 16.6216 15.05 16.6216ZM15.05 16.6216C9.65 22.1351 8.75 23.0541 13.7 23.973C15.05 24.4324 17.3349 24.7214 17.75 24.4324C20.45 24.4324 24.05 22.5946 15.05 16.6216ZM15.5 1C8.04416 1 2 7.18382 2 14.8119C2 23.4025 7.31353 30.2842 12.9158 34.1849C14.4767 35.2717 16.5233 35.2717 18.0842 34.1849C23.6865 30.2842 29 23.4025 29 14.8119C29 7.18382 22.9558 1 15.5 1Z" stroke="#69A3F9"/>
<path fill-rule="evenodd" clip-rule="evenodd" d="M15.5004 8.198C13.2222 8.198 11.3754 10.0836 11.3754 12.4097C11.3754 14.7358 13.2222 16.6214 15.5004 16.6214C17.7786 16.6214 19.6254 14.7358 19.6254 12.4097C19.6254 10.0836 17.7786 8.198 15.5004 8.198ZM13.0254 12.4097C13.0254 11.0141 14.1335 9.88268 15.5004 9.88268C16.8673 9.88268 17.9754 11.0141 17.9754 12.4097C17.9754 13.8053 16.8673 14.9367 15.5004 14.9367C14.1335 14.9367 13.0254 13.8053 13.0254 12.4097Z" fill="#69A3F9"/>
<path d="M10.5504 24.2025C10.5504 21.4112 12.7666 19.1484 15.5004 19.1484C18.2342 19.1484 20.4504 21.4112 20.4504 24.2025C20.4504 24.6677 20.8198 25.0448 21.2754 25.0448C21.731 25.0448 22.1004 24.6677 22.1004 24.2025C22.1004 20.4808 19.1455 17.4638 15.5004 17.4638C11.8553 17.4638 8.90039 20.4808 8.90039 24.2025C8.90039 24.6677 9.26976 25.0448 9.72539 25.0448C10.181 25.0448 10.5504 24.6677 10.5504 24.2025Z" fill="#69A3F9"/>
<path d="M13.1243 23.9729H17.5999C19.263 23.9729 20.1685 22.0304 19.0992 20.7567L17.7492 18.9189L17.7039 18.8726C16.4621 17.6047 14.4511 17.5133 13.0995 18.6634C12.9 18.8331 12.7209 19.0255 12.5658 19.2366L11.4492 20.7567C10.5013 22.1117 11.4707 23.9729 13.1243 23.9729Z" stroke="#FAFAFE" stroke-width="3"/>
</svg>
