<svg width="30" height="37" viewBox="0 0 30 37" fill="none" xmlns="http://www.w3.org/2000/svg">
<path fill-rule="evenodd" clip-rule="evenodd" d="M15 0C6.71573 0 0 6.72945 0 15.0306C0 24.3792 5.90393 31.868 12.1287 36.113C13.863 37.2957 16.137 37.2957 17.8713 36.113C24.0961 31.868 30 24.3792 30 15.0306C30 6.72945 23.2843 0 15 0Z" fill="#69A3F9"/>
<path d="M7 14.9412C7 14.9412 12.8182 7 15 7C17.1818 7 23 14.9412 23 14.9412V25H17.9091V21.7612C17.9091 20.3647 17.5707 19.4688 17.0526 18.9149L16.7547 18.6471C16.2352 18.2557 15.5935 18.1176 14.9452 18.1176C14.5398 18.1214 13.7931 18.3463 13.1648 18.9232L13.0914 19L13.0674 19.0165C12.5472 19.5361 12.1289 20.3128 12.0909 21.4261V21.7612V25H7V14.9412Z" fill="white"/>
<path d="M12.0909 21.7612V19.6854L12.5912 19.3427L13.0914 19L14.9452 17.0588L16.7547 18.6471L17.9091 19.6854V21.7612M12.0909 21.7612V25H7V14.9412C7 14.9412 12.8182 7 15 7C17.1818 7 23 14.9412 23 14.9412V25C20.4438 25 17.9091 25 17.9091 25V21.7612M12.0909 21.7612C12 19 14.1421 18.1251 14.9452 18.1176C16.4452 18.1176 17.9091 18.8566 17.9091 21.7612" stroke="white"/>
</svg>
