<svg width="23" height="23" viewBox="0 0 23 23" fill="none" xmlns="http://www.w3.org/2000/svg">
<path d="M11.0432 0C6.43429 0 5.08635 0.00475464 4.82434 0.0264901C3.8785 0.105111 3.28995 0.254034 2.64875 0.573274C2.15461 0.818647 1.7649 1.10308 1.38028 1.50179C0.679819 2.22891 0.255298 3.12346 0.101621 4.1868C0.0269052 4.70302 0.00516973 4.8083 0.000754705 7.44509C-0.000943381 8.32402 0.000754705 9.48075 0.000754705 11.0323C0.000754705 15.6375 0.00584896 16.9841 0.0279241 17.2456C0.104338 18.1659 0.248675 18.745 0.554331 19.3784C1.13847 20.5908 2.25411 21.501 3.56843 21.8406C4.02352 21.9578 4.52615 22.0223 5.17142 22.0529C5.44482 22.0648 8.23137 22.0732 11.0196 22.0732C13.8079 22.0732 16.5961 22.0698 16.8627 22.0563C17.6099 22.0211 18.0438 21.9629 18.5235 21.8389C19.1752 21.6718 19.7825 21.3644 20.3031 20.9383C20.8237 20.5121 21.245 19.9774 21.5376 19.3716C21.8373 18.7535 21.9893 18.1524 22.058 17.2801C22.073 17.0899 22.0793 14.0576 22.0793 11.0294C22.0793 8.0007 22.0725 4.97403 22.0575 4.78385C21.9879 3.89745 21.8359 3.30142 21.5265 2.67143C21.2727 2.15572 20.9908 1.77059 20.5815 1.37681C19.8514 0.679234 18.9582 0.254713 17.8936 0.101206C17.3779 0.0266599 17.2752 0.00458483 14.6364 0H11.0432Z" fill="url(#paint0_radial_510_2255)"/>
<path d="M11.0432 0C6.43429 0 5.08635 0.00475464 4.82434 0.0264901C3.8785 0.105111 3.28995 0.254034 2.64875 0.573274C2.15461 0.818647 1.7649 1.10308 1.38028 1.50179C0.679819 2.22891 0.255298 3.12346 0.101621 4.1868C0.0269052 4.70302 0.00516973 4.8083 0.000754705 7.44509C-0.000943381 8.32402 0.000754705 9.48075 0.000754705 11.0323C0.000754705 15.6375 0.00584896 16.9841 0.0279241 17.2456C0.104338 18.1659 0.248675 18.745 0.554331 19.3784C1.13847 20.5908 2.25411 21.501 3.56843 21.8406C4.02352 21.9578 4.52615 22.0223 5.17142 22.0529C5.44482 22.0648 8.23137 22.0732 11.0196 22.0732C13.8079 22.0732 16.5961 22.0698 16.8627 22.0563C17.6099 22.0211 18.0438 21.9629 18.5235 21.8389C19.1752 21.6718 19.7825 21.3644 20.3031 20.9383C20.8237 20.5121 21.245 19.9774 21.5376 19.3716C21.8373 18.7535 21.9893 18.1524 22.058 17.2801C22.073 17.0899 22.0793 14.0576 22.0793 11.0294C22.0793 8.0007 22.0725 4.97403 22.0575 4.78385C21.9879 3.89745 21.8359 3.30142 21.5265 2.67143C21.2727 2.15572 20.9908 1.77059 20.5815 1.37681C19.8514 0.679234 18.9582 0.254713 17.8936 0.101206C17.3779 0.0266599 17.2752 0.00458483 14.6364 0H11.0432Z" fill="url(#paint1_radial_510_2255)"/>
<path d="M11.038 2.88672C8.82441 2.88672 8.54661 2.8964 7.67719 2.93596C6.80947 2.9757 6.21717 3.11307 5.69892 3.31464C5.16283 3.52282 4.70809 3.80131 4.25504 4.25453C3.80165 4.70758 3.52316 5.16232 3.3143 5.69824C3.11222 6.21666 2.97468 6.80913 2.93562 7.67651C2.89691 8.54593 2.88672 8.8239 2.88672 11.0375C2.88672 13.2512 2.89657 13.5281 2.93596 14.3975C2.97587 15.2653 3.11324 15.8575 3.31464 16.3758C3.52299 16.9119 3.80148 17.3666 4.2547 17.8197C4.70758 18.2731 5.16232 18.5522 5.69807 18.7604C6.21666 18.962 6.80913 19.0994 7.67668 19.1391C8.5461 19.1787 8.82373 19.1883 11.0372 19.1883C13.251 19.1883 13.5279 19.1787 14.3974 19.1391C15.2651 19.0994 15.8581 18.962 16.3766 18.7604C16.9126 18.5522 17.3666 18.2731 17.8195 17.8197C18.2729 17.3666 18.5514 16.9119 18.7602 16.376C18.9606 15.8575 19.0982 15.2651 19.1389 14.3977C19.178 13.5283 19.1882 13.2512 19.1882 11.0375C19.1882 8.8239 19.178 8.5461 19.1389 7.67668C19.0982 6.80896 18.9606 6.21666 18.7602 5.69841C18.5514 5.16232 18.2729 4.70758 17.8195 4.25453C17.3661 3.80114 16.9127 3.52265 16.3761 3.31464C15.8565 3.11307 15.2639 2.9757 14.3962 2.93596C13.5268 2.8964 13.25 2.88672 11.0357 2.88672H11.038ZM10.3068 4.35556C10.5239 4.35522 10.766 4.35556 11.038 4.35556C13.2143 4.35556 13.4722 4.36337 14.3316 4.40243C15.1263 4.43877 15.5577 4.57156 15.845 4.68312C16.2253 4.83086 16.4965 5.00746 16.7816 5.29274C17.0669 5.57801 17.2435 5.84971 17.3916 6.23008C17.5032 6.51706 17.6361 6.94837 17.6723 7.74307C17.7113 8.6023 17.7198 8.86041 17.7198 11.0357C17.7198 13.2109 17.7113 13.469 17.6723 14.3282C17.6359 15.123 17.5032 15.5543 17.3916 15.8412C17.2439 16.2216 17.0669 16.4925 16.7816 16.7776C16.4964 17.0628 16.2255 17.2394 15.845 17.3872C15.558 17.4993 15.1263 17.6317 14.3316 17.668C13.4724 17.7071 13.2143 17.7156 11.038 17.7156C8.8616 17.7156 8.60366 17.7071 7.74443 17.668C6.94973 17.6314 6.51841 17.4986 6.23093 17.387C5.85056 17.2393 5.57886 17.0627 5.29358 16.7774C5.00831 16.4921 4.83171 16.2211 4.68363 15.8406C4.57207 15.5536 4.43911 15.1223 4.40294 14.3276C4.36388 13.4683 4.35607 13.2102 4.35607 11.0336C4.35607 8.85702 4.36388 8.60027 4.40294 7.74104C4.43928 6.94633 4.57207 6.51502 4.68363 6.2277C4.83137 5.84733 5.00831 5.57564 5.29358 5.29036C5.57886 5.00508 5.85056 4.82848 6.23093 4.68041C6.51824 4.56833 6.94973 4.43588 7.74443 4.39937C8.49634 4.36541 8.78773 4.35522 10.3068 4.35353V4.35556ZM15.3889 5.70894C15.1954 5.70894 15.0063 5.76631 14.8454 5.8738C14.6846 5.98129 14.5592 6.13407 14.4852 6.31281C14.4112 6.49155 14.3918 6.68823 14.4296 6.87798C14.4674 7.06772 14.5605 7.242 14.6974 7.37877C14.8342 7.51555 15.0085 7.60868 15.1983 7.64638C15.388 7.68408 15.5847 7.66466 15.7634 7.59058C15.9421 7.5165 16.0949 7.39108 16.2023 7.23019C16.3097 7.0693 16.367 6.88016 16.367 6.68669C16.367 6.1467 15.9289 5.7086 15.3889 5.7086V5.70894ZM11.038 6.85175C8.72643 6.85175 6.85226 8.72593 6.85226 11.0375C6.85226 13.3491 8.72643 15.2225 11.038 15.2225C13.3496 15.2225 15.2233 13.3491 15.2233 11.0375C15.2233 8.72593 13.3495 6.85175 11.0379 6.85175H11.038ZM11.038 8.32059C12.5385 8.32059 13.755 9.53693 13.755 11.0375C13.755 12.538 12.5385 13.7545 11.038 13.7545C9.53744 13.7545 8.3211 12.538 8.3211 11.0375C8.3211 9.53693 9.53744 8.32059 11.038 8.32059V8.32059Z" fill="white"/>
<defs>
<radialGradient id="paint0_radial_510_2255" cx="0" cy="0" r="1" gradientUnits="userSpaceOnUse" gradientTransform="translate(5.86483 23.7733) rotate(-90) scale(21.8762 20.3521)">
<stop stop-color="#FFDD55"/>
<stop offset="0.1" stop-color="#FFDD55"/>
<stop offset="0.5" stop-color="#FF543E"/>
<stop offset="1" stop-color="#C837AB"/>
</radialGradient>
<radialGradient id="paint1_radial_510_2255" cx="0" cy="0" r="1" gradientUnits="userSpaceOnUse" gradientTransform="translate(-3.69839 1.59012) rotate(78.6776) scale(9.77886 40.319)">
<stop stop-color="#3771C8"/>
<stop offset="0.128" stop-color="#3771C8"/>
<stop offset="1" stop-color="#6600FF" stop-opacity="0"/>
</radialGradient>
</defs>
</svg>
