<svg width="55" height="59" viewBox="0 0 55 59" fill="none" xmlns="http://www.w3.org/2000/svg">
<path d="M33.3967 26.344C33.3967 26.4485 33.3967 26.5489 33.3967 26.6494C33.3235 28.5801 32.558 30.4154 31.2466 31.8044C29.9352 33.1934 28.1699 34.0387 26.2882 34.1786C26.1078 34.1786 25.9273 34.1987 25.7468 34.1987C25.5664 34.1987 25.4252 34.1987 25.2682 34.1987C23.3419 34.0837 21.5287 33.229 20.1906 31.805C18.8526 30.3811 18.0881 28.4927 18.0499 26.5168C18.0499 26.4606 18.0499 26.3963 18.0499 26.34C18.0268 25.2933 18.2082 24.2524 18.5833 23.2785C18.9584 22.3046 19.5198 21.4173 20.2345 20.6686C20.9491 19.92 21.8026 19.3251 22.7448 18.919C23.6871 18.5129 24.6991 18.3037 25.7213 18.3037C26.7436 18.3037 27.7556 18.5129 28.6978 18.919C29.6401 19.3251 30.4936 19.92 31.2082 20.6686C31.9229 21.4173 32.4843 22.3046 32.8594 23.2785C33.2345 24.2524 33.4159 25.2933 33.3928 26.34L33.3967 26.344Z" fill="url(#paint0_linear_36_525)"/>
<path d="M51.4464 26.3441C51.4512 30.5371 50.4745 34.6703 48.5983 38.3972C46.7553 42.0497 44.1081 45.2132 40.8661 47.6379C39.7677 46.6335 38.6731 45.6277 37.5826 44.6206C41.3573 42.0021 44.2111 38.2114 45.7239 33.8067C47.2366 29.4021 47.3283 24.6163 45.9853 20.1543C44.6423 15.6923 41.9358 11.7899 38.2642 9.02182C34.5927 6.25376 30.1502 4.76636 25.5911 4.77868C21.0321 4.79101 16.5973 6.30241 12.9401 9.09029C9.28287 11.8782 6.59647 15.7952 5.27653 20.2644C3.9566 24.7336 4.07292 29.5188 5.60834 33.9152C7.14377 38.3116 10.0172 42.0868 13.8053 44.6849L10.5061 47.5777C6.95967 44.9144 4.1391 41.3645 2.31363 37.267C0.48816 33.1695 -0.281261 28.6612 0.0788296 24.1725C0.43892 19.6838 1.9165 15.3645 4.37049 11.6271C6.82449 7.8897 10.173 4.85892 14.0962 2.82413C18.0195 0.789343 22.3866 -0.181521 26.7805 0.00423431C31.1744 0.18999 35.4485 1.52616 39.1947 3.88518C42.9409 6.2442 46.034 9.54731 48.1789 13.4791C50.3238 17.411 51.4488 21.8402 51.4464 26.3441Z" fill="url(#paint1_linear_36_525)"/>
<path d="M46.935 26.573C46.9377 30.1361 46.0864 33.6453 44.4557 36.7926C42.8251 39.94 40.465 42.6294 37.5826 44.6246C36.2566 43.4086 34.9307 42.1885 33.6047 40.9645C36.7304 39.1448 39.1783 36.3145 40.5649 32.9172C41.9515 29.5198 42.1985 25.7473 41.2671 22.1908C40.3357 18.6343 38.2786 15.4947 35.4181 13.264C32.5576 11.0333 29.0553 9.83744 25.46 9.86386C21.8646 9.89028 18.3795 11.1375 15.5505 13.41C12.7215 15.6826 10.7086 18.8521 9.82718 22.4219C8.94573 25.9917 9.24553 29.7602 10.6796 33.1368C12.1137 36.5134 14.601 39.3074 17.7519 41.081L13.8054 44.6969C10.7487 42.6023 8.274 39.7324 6.62239 36.367C4.97078 33.0016 4.1986 29.2554 4.38109 25.4934C4.56357 21.7315 5.69451 18.0821 7.66368 14.9009C9.63286 11.7197 12.3731 9.1152 15.6174 7.34116C18.8617 5.56712 22.4995 4.68406 26.1761 4.77803C29.8528 4.872 33.4429 5.9398 36.5968 7.87737C39.7507 9.81495 42.3607 12.5562 44.1724 15.8341C45.9842 19.1119 46.936 22.8145 46.935 26.5811V26.573Z" fill="url(#paint2_linear_36_525)"/>
<path d="M40.8661 47.6419C36.4529 50.9294 31.1336 52.6951 25.6765 52.6843C20.2194 52.6735 14.9069 50.8866 10.5061 47.5817L13.8053 44.6889C17.3253 47.1017 21.4679 48.3844 25.7035 48.373C29.9391 48.3615 34.0752 47.0565 37.5826 44.6246C38.6837 45.6344 39.7782 46.6402 40.8661 47.6419Z" fill="url(#paint3_linear_36_525)"/>
<path d="M48.5983 38.4053C50.4029 45.2729 52.2048 52.1378 54.0042 59L40.8661 47.642C44.1077 45.2184 46.7547 42.0563 48.5983 38.4053Z" fill="#D2F487"/>
<path d="M48.5983 38.4061V38.3571" stroke="black" stroke-width="0.5" stroke-miterlimit="10"/>
<path d="M37.5826 44.6246C34.0751 47.0565 29.9391 48.3616 25.7035 48.373C21.4679 48.3845 17.3252 47.1018 13.8053 44.6889L17.7518 41.073C19.8349 42.2466 22.146 42.9327 24.519 43.0819C24.8681 43.106 25.2212 43.118 25.5743 43.118C28.3871 43.1337 31.1552 42.3969 33.6046 40.9806C34.9306 42.1966 36.2566 43.4113 37.5826 44.6246Z" fill="url(#paint4_linear_36_525)"/>
<defs>
<linearGradient id="paint0_linear_36_525" x1="18.0539" y1="26.344" x2="33.3967" y2="26.344" gradientUnits="userSpaceOnUse">
<stop stop-color="#FDE89C"/>
<stop offset="1" stop-color="#FF9728"/>
</linearGradient>
<linearGradient id="paint1_linear_36_525" x1="0.0042043" y1="23.821" x2="51.4464" y2="23.821" gradientUnits="userSpaceOnUse">
<stop stop-color="#9AEBA7"/>
<stop offset="0.85" stop-color="#B4E666"/>
<stop offset="1" stop-color="#B9E55A"/>
</linearGradient>
<linearGradient id="paint2_linear_36_525" x1="4.36663" y1="24.7329" x2="46.935" y2="24.7329" gradientUnits="userSpaceOnUse">
<stop stop-color="#4DDA62"/>
<stop offset="0.52" stop-color="#8EE874"/>
<stop offset="1" stop-color="#CDF586"/>
</linearGradient>
<linearGradient id="paint3_linear_36_525" x1="10.5061" y1="48.6544" x2="40.8661" y2="48.6544" gradientUnits="userSpaceOnUse">
<stop stop-color="#93EEF4"/>
<stop offset="1" stop-color="#4767FD"/>
</linearGradient>
<linearGradient id="paint4_linear_36_525" x1="13.8053" y1="44.6688" x2="37.5826" y2="44.6688" gradientUnits="userSpaceOnUse">
<stop stop-color="#4767FD"/>
<stop offset="0.02" stop-color="#4A6DFD"/>
<stop offset="0.17" stop-color="#6094FA"/>
<stop offset="0.32" stop-color="#73B5F8"/>
<stop offset="0.47" stop-color="#81CEF6"/>
<stop offset="0.63" stop-color="#8BE0F5"/>
<stop offset="0.81" stop-color="#91EBF4"/>
<stop offset="1" stop-color="#93EEF4"/>
</linearGradient>
</defs>
</svg>
