<svg width="74" height="71" viewBox="0 0 74 71" fill="none" xmlns="http://www.w3.org/2000/svg">
<g clip-path="url(#clip0_5_101)">
<path d="M53.6704 0H20.3296C9.10188 0 0 9.19647 0 20.5409V50.4591C0 61.8035 9.10188 71 20.3296 71H53.6704C64.8981 71 74 61.8035 74 50.4591V20.5409C74 9.19647 64.8981 0 53.6704 0Z" fill="url(#paint0_linear_5_101)"/>
<path d="M44.7746 34.0845C44.7746 34.1952 44.7746 34.2976 44.7746 34.4C44.6986 36.3713 43.9051 38.2448 42.5464 39.6616C41.1876 41.0783 39.3592 41.9385 37.4115 42.0772C37.2291 42.0772 37.0426 42.0977 36.852 42.0977C36.6614 42.0977 36.5195 42.0977 36.3573 42.0977C34.3717 41.9737 32.5048 41.0998 31.1272 39.6495C29.7497 38.1992 28.9623 36.2786 28.9213 34.2689C28.9213 34.2074 28.9213 34.146 28.9213 34.0845C28.9681 31.9912 29.824 29.9996 31.3059 28.5359C32.7877 27.0721 34.7777 26.2526 36.85 26.2526C38.9223 26.2526 40.9123 27.0721 42.3941 28.5359C43.8759 29.9996 44.7318 31.9912 44.7787 34.0845H44.7746Z" fill="url(#paint1_linear_5_101)"/>
<path d="M63.4297 34.0846C63.4345 38.3601 62.4251 42.5745 60.4861 46.3747C58.5801 50.0994 55.8428 53.3252 52.4905 55.7971C51.3579 54.7729 50.228 53.7474 49.1009 52.7205C53.0026 50.0511 55.9528 46.1864 57.5171 41.6954C59.0813 37.2044 59.1768 32.3245 57.7895 27.7745C56.4023 23.2246 53.6056 19.245 49.8114 16.4218C46.0171 13.5987 41.4259 12.0813 36.7139 12.0931C32.0019 12.1049 27.4182 13.6452 23.6378 16.4873C19.8575 19.3293 17.0803 23.3229 15.7153 27.8798C14.3504 32.4366 14.4698 37.3159 16.056 41.799C17.6422 46.2822 20.6113 50.1321 24.5261 52.7819L21.1162 55.7316C17.4527 53.0155 14.5392 49.396 12.654 45.2186C10.7689 41.0412 9.97483 36.4453 10.3477 31.8696C10.7207 27.2939 12.2481 22.8911 14.7842 19.0816C17.3204 15.272 20.7806 12.1828 24.8345 10.1089C28.8884 8.03494 33.4008 7.04547 37.9409 7.23492C42.481 7.42437 46.8973 8.78642 50.7682 11.191C54.6391 13.5957 57.8354 16.9626 60.052 20.9705C62.2686 24.9784 63.4315 29.4934 63.4297 34.0846Z" fill="url(#paint2_linear_5_101)"/>
<path d="M58.767 34.3222C58.769 37.9551 57.8888 41.5331 56.2035 44.7422C54.5183 47.9514 52.0794 50.6937 49.1009 52.7287C47.7223 51.4888 46.3573 50.2447 45.0057 48.9966C48.2375 47.1415 50.7688 44.2555 52.2031 40.7909C53.6375 37.3262 53.8937 33.4787 52.9317 29.8512C51.9698 26.2236 49.8439 23.021 46.8873 20.7451C43.9307 18.4692 40.3104 17.2487 36.5936 17.2747C32.8768 17.3007 29.2735 18.5718 26.3484 20.8889C23.4233 23.2059 21.3416 26.438 20.4294 30.0787C19.5173 33.7193 19.8263 37.5629 21.3079 41.0071C22.7896 44.4513 25.3603 47.3016 28.6172 49.1113C27.2656 50.3403 25.9074 51.5693 24.5423 52.7983C21.3848 50.6621 18.8289 47.7359 17.1233 44.3049C15.4178 40.8738 14.6209 37.055 14.8103 33.2203C14.9997 29.3856 16.1689 25.6658 18.204 22.4234C20.2391 19.181 23.0707 16.5264 26.4229 14.7184C29.7752 12.9103 33.5338 12.0104 37.3326 12.1063C41.1314 12.2022 44.8408 13.2906 48.0995 15.2656C51.3582 17.2406 54.0551 20.0347 55.9274 23.3757C57.7997 26.7168 58.7836 30.4909 58.7832 34.3304L58.767 34.3222Z" fill="url(#paint3_linear_5_101)"/>
<path d="M52.4905 55.8054C47.9299 59.1577 42.4325 60.9581 36.7928 60.9463C31.153 60.9345 25.663 59.1112 21.1162 55.7398L24.5261 52.7902C28.1633 55.2521 32.4449 56.5614 36.8228 56.5505C41.2007 56.5395 45.4758 55.2088 49.1009 52.7288C50.228 53.7584 51.3579 54.7839 52.4905 55.8054Z" fill="url(#paint4_linear_5_101)"/>
<path d="M60.4861 46.387C62.3458 53.3869 64.2082 60.3881 66.0733 67.3908L52.4905 55.8053C55.8433 53.3357 58.5808 50.1111 60.4861 46.387Z" fill="#F1F2F0"/>
<path d="M60.4861 46.3871V46.3379" stroke="black" stroke-width="0.5" stroke-miterlimit="10"/>
<path d="M49.1009 52.7287C45.476 55.2093 41.2008 56.5403 36.8228 56.5512C32.4448 56.5622 28.1631 55.2526 24.5261 52.7901C25.8776 51.5693 27.2359 50.3403 28.601 49.1031C30.7547 50.3014 33.145 51.001 35.5992 51.1514C35.96 51.176 36.3249 51.1883 36.6898 51.1883C39.6035 51.2028 42.4703 50.4473 45.0058 48.9966C46.3573 50.242 47.7223 51.486 49.1009 52.7287Z" fill="url(#paint5_linear_5_101)"/>
</g>
<defs>
<linearGradient id="paint0_linear_5_101" x1="16.2548" y1="71.8071" x2="58.3919" y2="-0.429805" gradientUnits="userSpaceOnUse">
<stop stop-color="#6399FA"/>
<stop offset="0.15" stop-color="#72B3F8"/>
<stop offset="0.35" stop-color="#80CCF6"/>
<stop offset="0.55" stop-color="#8ADEF5"/>
<stop offset="0.76" stop-color="#90E9F4"/>
<stop offset="1" stop-color="#92ECF4"/>
</linearGradient>
<linearGradient id="paint1_linear_5_101" x1="29.128" y1="34.0845" x2="45.8896" y2="34.0845" gradientUnits="userSpaceOnUse">
<stop stop-color="#F1F2F0"/>
<stop offset="1" stop-color="#CECECE"/>
</linearGradient>
<linearGradient id="paint2_linear_5_101" x1="10.2621" y1="31.5159" x2="63.4297" y2="31.5159" gradientUnits="userSpaceOnUse">
<stop stop-color="white"/>
<stop offset="1" stop-color="#CFCFCF"/>
</linearGradient>
<linearGradient id="paint3_linear_5_101" x1="14.7708" y1="32.4418" x2="58.767" y2="32.4418" gradientUnits="userSpaceOnUse">
<stop offset="0.01" stop-color="#D8D8D8"/>
<stop offset="0.25" stop-color="#E6E6E5"/>
<stop offset="0.55" stop-color="#EEEFED"/>
<stop offset="1" stop-color="#F1F2F0"/>
</linearGradient>
<linearGradient id="paint4_linear_5_101" x1="21.1162" y1="56.8378" x2="52.4905" y2="56.8378" gradientUnits="userSpaceOnUse">
<stop stop-color="white"/>
<stop offset="1" stop-color="#B3B3B3"/>
</linearGradient>
<linearGradient id="paint5_linear_5_101" x1="24.5261" y1="52.7737" x2="49.1009" y2="52.7737" gradientUnits="userSpaceOnUse">
<stop offset="0.01" stop-color="#B3B3B3"/>
<stop offset="0.19" stop-color="#C6C6C6"/>
<stop offset="0.44" stop-color="#D8D8D8"/>
<stop offset="0.7" stop-color="#E3E3E3"/>
<stop offset="1" stop-color="#E6E6E6"/>
</linearGradient>
<clipPath id="clip0_5_101">
<rect width="74" height="71" fill="white"/>
</clipPath>
</defs>
</svg>
