<svg width="16" height="20" viewBox="0 0 16 20" fill="none" xmlns="http://www.w3.org/2000/svg">
<path d="M7.70711 1.70711C8.09763 1.31658 8.09763 0.683417 7.70711 0.292893C7.31658 -0.0976311 6.68342 -0.0976311 6.29289 0.292893L4.29289 2.29289C3.90237 2.68342 3.90237 3.31658 4.29289 3.70711L6.29289 5.70711C6.68342 6.09763 7.31658 6.09763 7.70711 5.70711C8.09763 5.31658 8.09763 4.68342 7.70711 4.29289L7.41421 4H8C11.3137 4 14 6.68629 14 10C14 10.5523 14.4477 11 15 11C15.5523 11 16 10.5523 16 10C16 5.58172 12.4183 2 8 2H7.41421L7.70711 1.70711Z" fill="#D8DAE8"/>
<path d="M8.29289 15.7071C7.90237 15.3166 7.90237 14.6834 8.29289 14.2929C8.68342 13.9024 9.31658 13.9024 9.70711 14.2929L11.7071 16.2929C12.0976 16.6834 12.0976 17.3166 11.7071 17.7071L9.70711 19.7071C9.31658 20.0976 8.68342 20.0976 8.29289 19.7071C7.90237 19.3166 7.90237 18.6834 8.29289 18.2929L8.58579 18H8C3.58172 18 0 14.4183 0 10C0 9.44771 0.447715 9 1 9C1.55228 9 2 9.44771 2 10C2 13.3137 4.68629 16 8 16H8.58579L8.29289 15.7071Z" fill="#D8DAE8"/>
</svg>
